<?xml version="1.0" encoding="UTF-8" standalone="no"?>
<svg xmlns="http://www.w3.org/2000/svg" width="200mm" height="200mm" viewBox="0 0 200 200">
  <path style="fill:none;stroke:#000000;stroke-width:0.3" d="M 40.000,40.000 L 160.000,40.000" />
  <path style="fill:none;stroke:#000000;stroke-width:0.3" d="M 40.000,46.316 L 160.000,46.316" />
  <path style="fill:none;stroke:#000000;stroke-width:0.3" d="M 40.000,52.632 L 160.000,52.632" />
  <path style="fill:none;stroke:#000000;stroke-width:0.3" d="M 40.000,58.947 L 160.000,58.947" />
  <path style="fill:none;stroke:#000000;stroke-width:0.3" d="M 40.000,65.263 L 160.000,65.263" />
  <path style="fill:none;stroke:#000000;stroke-width:0.3" d="M 40.000,71.579 L 160.000,71.579" />
  <path style="fill:none;stroke:#000000;stroke-width:0.3" d="M 40.000,77.895 L 160.000,77.895" />
  <path style="fill:none;stroke:#000000;stroke-width:0.3" d="M 40.000,84.211 L 160.000,84.211" />
  <path style="fill:none;stroke:#000000;stroke-width:0.3" d="M 40.000,90.526 L 160.000,90.526" />
  <path style="fill:none;stroke:#000000;stroke-width:0.3" d="M 40.000,96.842 L 160.000,96.842" />
  <path style="fill:none;stroke:#000000;stroke-width:0.3" d="M 40.000,103.158 L 160.000,103.158" />
  <path style="fill:none;stroke:#000000;stroke-width:0.3" d="M 40.000,109.474 L 160.000,109.474" />
  <path style="fill:none;stroke:#000000;stroke-width:0.3" d="M 40.000,115.789 L 160.000,115.789" />
  <path style="fill:none;stroke:#000000;stroke-width:0.3" d="M 40.000,122.105 L 160.000,122.105" />
  <path style="fill:none;stroke:#000000;stroke-width:0.3" d="M 40.000,128.421 L 160.000,128.421" />
  <path style="fill:none;stroke:#000000;stroke-width:0.3" d="M 40.000,134.737 L 160.000,134.737" />
  <path style="fill:none;stroke:#000000;stroke-width:0.3" d="M 40.000,141.053 L 160.000,141.053" />
  <path style="fill:none;stroke:#000000;stroke-width:0.3" d="M 40.000,147.368 L 160.000,147.368" />
  <path style="fill:none;stroke:#000000;stroke-width:0.3" d="M 40.000,153.684 L 160.000,153.684" />
  <path style="fill:none;stroke:#000000;stroke-width:0.3" d="M 40.000,160.000 L 160.000,160.000" />
  <path style="fill:none;stroke:#000000;stroke-width:0.3" d="M 40.000,40.000 L 40.000,160.000" />
  <path style="fill:none;stroke:#000000;stroke-width:0.3" d="M 46.316,40.000 L 46.316,160.000" />
  <path style="fill:none;stroke:#000000;stroke-width:0.3" d="M 52.632,40.000 L 52.632,160.000" />
  <path style="fill:none;stroke:#000000;stroke-width:0.3" d="M 58.947,40.000 L 58.947,160.000" />
  <path style="fill:none;stroke:#000000;stroke-width:0.3" d="M 65.263,40.000 L 65.263,160.000" />
  <path style="fill:none;stroke:#000000;stroke-width:0.3" d="M 71.579,40.000 L 71.579,160.000" />
  <path style="fill:none;stroke:#000000;stroke-width:0.3" d="M 77.895,40.000 L 77.895,160.000" />
  <path style="fill:none;stroke:#000000;stroke-width:0.3" d="M 84.211,40.000 L 84.211,160.000" />
  <path style="fill:none;stroke:#000000;stroke-width:0.3" d="M 90.526,40.000 L 90.526,160.000" />
  <path style="fill:none;stroke:#000000;stroke-width:0.3" d="M 96.842,40.000 L 96.842,160.000" />
  <path style="fill:none;stroke:#000000;stroke-width:0.3" d="M 103.158,40.000 L 103.158,160.000" />
  <path style="fill:none;stroke:#000000;stroke-width:0.3" d="M 109.474,40.000 L 109.474,160.000" />
  <path style="fill:none;stroke:#000000;stroke-width:0.3" d="M 115.789,40.000 L 115.789,160.000" />
  <path style="fill:none;stroke:#000000;stroke-width:0.3" d="M 122.105,40.000 L 122.105,160.000" />
  <path style="fill:none;stroke:#000000;stroke-width:0.3" d="M 128.421,40.000 L 128.421,160.000" />
  <path style="fill:none;stroke:#000000;stroke-width:0.3" d="M 134.737,40.000 L 134.737,160.000" />
  <path style="fill:none;stroke:#000000;stroke-width:0.3" d="M 141.053,40.000 L 141.053,160.000" />
  <path style="fill:none;stroke:#000000;stroke-width:0.3" d="M 147.368,40.000 L 147.368,160.000" />
  <path style="fill:none;stroke:#000000;stroke-width:0.3" d="M 153.684,40.000 L 153.684,160.000" />
  <path style="fill:none;stroke:#000000;stroke-width:0.3" d="M 160.000,40.000 L 160.000,160.000" />
</svg>
