<?xml version="1.0" encoding="UTF-8" standalone="no"?>
<svg xmlns="http://www.w3.org/2000/svg" width="200mm" height="200mm" viewBox="0 0 200 200">
  <path style="fill:none;stroke:#000000;stroke-width:0.3" d="M 15.000,70.000 L 17.000,70.000" />
  <path style="fill:none;stroke:#000000;stroke-width:0.3" d="M 17.297,130.000 L 19.297,130.000" />
  <path style="fill:none;stroke:#000000;stroke-width:0.3" d="M 19.595,70.000 L 21.595,70.000" />
  <path style="fill:none;stroke:#000000;stroke-width:0.3" d="M 21.892,130.000 L 23.892,130.000" />
  <path style="fill:none;stroke:#000000;stroke-width:0.3" d="M 24.189,70.000 L 26.189,70.000" />
  <path style="fill:none;stroke:#000000;stroke-width:0.3" d="M 26.486,130.000 L 28.486,130.000" />
  <path style="fill:none;stroke:#000000;stroke-width:0.3" d="M 28.784,70.000 L 30.784,70.000" />
  <path style="fill:none;stroke:#000000;stroke-width:0.3" d="M 31.081,130.000 L 33.081,130.000" />
  <path style="fill:none;stroke:#000000;stroke-width:0.3" d="M 33.378,70.000 L 35.378,70.000" />
  <path style="fill:none;stroke:#000000;stroke-width:0.3" d="M 35.676,130.000 L 37.676,130.000" />
  <path style="fill:none;stroke:#000000;stroke-width:0.3" d="M 37.973,70.000 L 39.973,70.000" />
  <path style="fill:none;stroke:#000000;stroke-width:0.3" d="M 40.270,130.000 L 42.270,130.000" />
  <path style="fill:none;stroke:#000000;stroke-width:0.3" d="M 42.568,70.000 L 44.568,70.000" />
  <path style="fill:none;stroke:#000000;stroke-width:0.3" d="M 44.865,130.000 L 46.865,130.000" />
  <path style="fill:none;stroke:#000000;stroke-width:0.3" d="M 47.162,70.000 L 49.162,70.000" />
  <path style="fill:none;stroke:#000000;stroke-width:0.3" d="M 49.459,130.000 L 51.459,130.000" />
  <path style="fill:none;stroke:#000000;stroke-width:0.3" d="M 51.757,70.000 L 53.757,70.000" />
  <path style="fill:none;stroke:#000000;stroke-width:0.3" d="M 54.054,130.000 L 56.054,130.000" />
  <path style="fill:none;stroke:#000000;stroke-width:0.3" d="M 56.351,70.000 L 58.351,70.000" />
  <path style="fill:none;stroke:#000000;stroke-width:0.3" d="M 58.649,130.000 L 60.649,130.000" />
  <path style="fill:none;stroke:#000000;stroke-width:0.3" d="M 60.946,70.000 L 62.946,70.000" />
  <path style="fill:none;stroke:#000000;stroke-width:0.3" d="M 63.243,130.000 L 65.243,130.000" />
  <path style="fill:none;stroke:#000000;stroke-width:0.3" d="M 65.541,70.000 L 67.541,70.000" />
  <path style="fill:none;stroke:#000000;stroke-width:0.3" d="M 67.838,130.000 L 69.838,130.000" />
  <path style="fill:none;stroke:#000000;stroke-width:0.3" d="M 70.135,70.000 L 72.135,70.000" />
  <path style="fill:none;stroke:#000000;stroke-width:0.3" d="M 72.432,130.000 L 74.432,130.000" />
  <path style="fill:none;stroke:#000000;stroke-width:0.3" d="M 74.730,70.000 L 76.730,70.000" />
  <path style="fill:none;stroke:#000000;stroke-width:0.3" d="M 77.027,130.000 L 79.027,130.000" />
  <path style="fill:none;stroke:#000000;stroke-width:0.3" d="M 79.324,70.000 L 81.324,70.000" />
  <path style="fill:none;stroke:#000000;stroke-width:0.3" d="M 81.622,130.000 L 83.622,130.000" />
  <path style="fill:none;stroke:#000000;stroke-width:0.3" d="M 83.919,70.000 L 85.919,70.000" />
  <path style="fill:none;stroke:#000000;stroke-width:0.3" d="M 86.216,130.000 L 88.216,130.000" />
  <path style="fill:none;stroke:#000000;stroke-width:0.3" d="M 88.514,70.000 L 90.514,70.000" />
  <path style="fill:none;stroke:#000000;stroke-width:0.3" d="M 90.811,130.000 L 92.811,130.000" />
  <path style="fill:none;stroke:#000000;stroke-width:0.3" d="M 93.108,70.000 L 95.108,70.000" />
  <path style="fill:none;stroke:#000000;stroke-width:0.3" d="M 95.405,130.000 L 97.405,130.000" />
  <path style="fill:none;stroke:#000000;stroke-width:0.3" d="M 97.703,70.000 L 99.703,70.000" />
  <path style="fill:none;stroke:#000000;stroke-width:0.3" d="M 100.000,130.000 L 102.000,130.000" />
  <path style="fill:none;stroke:#000000;stroke-width:0.3" d="M 102.297,70.000 L 104.297,70.000" />
  <path style="fill:none;stroke:#000000;stroke-width:0.3" d="M 104.595,130.000 L 106.595,130.000" />
  <path style="fill:none;stroke:#000000;stroke-width:0.3" d="M 106.892,70.000 L 108.892,70.000" />
  <path style="fill:none;stroke:#000000;stroke-width:0.3" d="M 109.189,130.000 L 111.189,130.000" />
  <path style="fill:none;stroke:#000000;stroke-width:0.3" d="M 111.486,70.000 L 113.486,70.000" />
  <path style="fill:none;stroke:#000000;stroke-width:0.3" d="M 113.784,130.000 L 115.784,130.000" />
  <path style="fill:none;stroke:#000000;stroke-width:0.3" d="M 116.081,70.000 L 118.081,70.000" />
  <path style="fill:none;stroke:#000000;stroke-width:0.3" d="M 118.378,130.000 L 120.378,130.000" />
  <path style="fill:none;stroke:#000000;stroke-width:0.3" d="M 120.676,70.000 L 122.676,70.000" />
  <path style="fill:none;stroke:#000000;stroke-width:0.3" d="M 122.973,130.000 L 124.973,130.000" />
  <path style="fill:none;stroke:#000000;stroke-width:0.3" d="M 125.270,70.000 L 127.270,70.000" />
  <path style="fill:none;stroke:#000000;stroke-width:0.3" d="M 127.568,130.000 L 129.568,130.000" />
  <path style="fill:none;stroke:#000000;stroke-width:0.3" d="M 129.865,70.000 L 131.865,70.000" />
  <path style="fill:none;stroke:#000000;stroke-width:0.3" d="M 132.162,130.000 L 134.162,130.000" />
  <path style="fill:none;stroke:#000000;stroke-width:0.3" d="M 134.459,70.000 L 136.459,70.000" />
  <path style="fill:none;stroke:#000000;stroke-width:0.3" d="M 136.757,130.000 L 138.757,130.000" />
  <path style="fill:none;stroke:#000000;stroke-width:0.3" d="M 139.054,70.000 L 141.054,70.000" />
  <path style="fill:none;stroke:#000000;stroke-width:0.3" d="M 141.351,130.000 L 143.351,130.000" />
  <path style="fill:none;stroke:#000000;stroke-width:0.3" d="M 143.649,70.000 L 145.649,70.000" />
  <path style="fill:none;stroke:#000000;stroke-width:0.3" d="M 145.946,130.000 L 147.946,130.000" />
  <path style="fill:none;stroke:#000000;stroke-width:0.3" d="M 148.243,70.000 L 150.243,70.000" />
  <path style="fill:none;stroke:#000000;stroke-width:0.3" d="M 150.541,130.000 L 152.541,130.000" />
  <path style="fill:none;stroke:#000000;stroke-width:0.3" d="M 152.838,70.000 L 154.838,70.000" />
  <path style="fill:none;stroke:#000000;stroke-width:0.3" d="M 155.135,130.000 L 157.135,130.000" />
  <path style="fill:none;stroke:#000000;stroke-width:0.3" d="M 157.432,70.000 L 159.432,70.000" />
  <path style="fill:none;stroke:#000000;stroke-width:0.3" d="M 159.730,130.000 L 161.730,130.000" />
  <path style="fill:none;stroke:#000000;stroke-width:0.3" d="M 162.027,70.000 L 164.027,70.000" />
  <path style="fill:none;stroke:#000000;stroke-width:0.3" d="M 164.324,130.000 L 166.324,130.000" />
  <path style="fill:none;stroke:#000000;stroke-width:0.3" d="M 166.622,70.000 L 168.622,70.000" />
  <path style="fill:none;stroke:#000000;stroke-width:0.3" d="M 168.919,130.000 L 170.919,130.000" />
  <path style="fill:none;stroke:#000000;stroke-width:0.3" d="M 171.216,70.000 L 173.216,70.000" />
  <path style="fill:none;stroke:#000000;stroke-width:0.3" d="M 173.514,130.000 L 175.514,130.000" />
  <path style="fill:none;stroke:#000000;stroke-width:0.3" d="M 175.811,70.000 L 177.811,70.000" />
  <path style="fill:none;stroke:#000000;stroke-width:0.3" d="M 178.108,130.000 L 180.108,130.000" />
  <path style="fill:none;stroke:#000000;stroke-width:0.3" d="M 180.405,70.000 L 182.405,70.000" />
  <path style="fill:none;stroke:#000000;stroke-width:0.3" d="M 182.703,130.000 L 184.703,130.000" />
  <path style="fill:none;stroke:#000000;stroke-width:0.3" d="M 185.000,70.000 L 187.000,70.000" />
  <path style="fill:none;stroke:#000000;stroke-width:0.3" d="M 15.000,130.000 L 17.000,130.000" />
  <path style="fill:none;stroke:#000000;stroke-width:0.3" d="M 17.297,70.000 L 19.297,70.000" />
  <path style="fill:none;stroke:#000000;stroke-width:0.3" d="M 19.595,130.000 L 21.595,130.000" />
  <path style="fill:none;stroke:#000000;stroke-width:0.3" d="M 21.892,70.000 L 23.892,70.000" />
  <path style="fill:none;stroke:#000000;stroke-width:0.3" d="M 24.189,130.000 L 26.189,130.000" />
  <path style="fill:none;stroke:#000000;stroke-width:0.3" d="M 26.486,70.000 L 28.486,70.000" />
  <path style="fill:none;stroke:#000000;stroke-width:0.3" d="M 28.784,130.000 L 30.784,130.000" />
  <path style="fill:none;stroke:#000000;stroke-width:0.3" d="M 31.081,70.000 L 33.081,70.000" />
  <path style="fill:none;stroke:#000000;stroke-width:0.3" d="M 33.378,130.000 L 35.378,130.000" />
  <path style="fill:none;stroke:#000000;stroke-width:0.3" d="M 35.676,70.000 L 37.676,70.000" />
  <path style="fill:none;stroke:#000000;stroke-width:0.3" d="M 37.973,130.000 L 39.973,130.000" />
  <path style="fill:none;stroke:#000000;stroke-width:0.3" d="M 40.270,70.000 L 42.270,70.000" />
  <path style="fill:none;stroke:#000000;stroke-width:0.3" d="M 42.568,130.000 L 44.568,130.000" />
  <path style="fill:none;stroke:#000000;stroke-width:0.3" d="M 44.865,70.000 L 46.865,70.000" />
  <path style="fill:none;stroke:#000000;stroke-width:0.3" d="M 47.162,130.000 L 49.162,130.000" />
  <path style="fill:none;stroke:#000000;stroke-width:0.3" d="M 49.459,70.000 L 51.459,70.000" />
  <path style="fill:none;stroke:#000000;stroke-width:0.3" d="M 51.757,130.000 L 53.757,130.000" />
  <path style="fill:none;stroke:#000000;stroke-width:0.3" d="M 54.054,70.000 L 56.054,70.000" />
  <path style="fill:none;stroke:#000000;stroke-width:0.3" d="M 56.351,130.000 L 58.351,130.000" />
  <path style="fill:none;stroke:#000000;stroke-width:0.3" d="M 58.649,70.000 L 60.649,70.000" />
  <path style="fill:none;stroke:#000000;stroke-width:0.3" d="M 60.946,130.000 L 62.946,130.000" />
  <path style="fill:none;stroke:#000000;stroke-width:0.3" d="M 63.243,70.000 L 65.243,70.000" />
  <path style="fill:none;stroke:#000000;stroke-width:0.3" d="M 65.541,130.000 L 67.541,130.000" />
  <path style="fill:none;stroke:#000000;stroke-width:0.3" d="M 67.838,70.000 L 69.838,70.000" />
  <path style="fill:none;stroke:#000000;stroke-width:0.3" d="M 70.135,130.000 L 72.135,130.000" />
  <path style="fill:none;stroke:#000000;stroke-width:0.3" d="M 72.432,70.000 L 74.432,70.000" />
  <path style="fill:none;stroke:#000000;stroke-width:0.3" d="M 74.730,130.000 L 76.730,130.000" />
  <path style="fill:none;stroke:#000000;stroke-width:0.3" d="M 77.027,70.000 L 79.027,70.000" />
  <path style="fill:none;stroke:#000000;stroke-width:0.3" d="M 79.324,130.000 L 81.324,130.000" />
  <path style="fill:none;stroke:#000000;stroke-width:0.3" d="M 81.622,70.000 L 83.622,70.000" />
  <path style="fill:none;stroke:#000000;stroke-width:0.3" d="M 83.919,130.000 L 85.919,130.000" />
  <path style="fill:none;stroke:#000000;stroke-width:0.3" d="M 86.216,70.000 L 88.216,70.000" />
  <path style="fill:none;stroke:#000000;stroke-width:0.3" d="M 88.514,130.000 L 90.514,130.000" />
  <path style="fill:none;stroke:#000000;stroke-width:0.3" d="M 90.811,70.000 L 92.811,70.000" />
  <path style="fill:none;stroke:#000000;stroke-width:0.3" d="M 93.108,130.000 L 95.108,130.000" />
  <path style="fill:none;stroke:#000000;stroke-width:0.3" d="M 95.405,70.000 L 97.405,70.000" />
  <path style="fill:none;stroke:#000000;stroke-width:0.3" d="M 97.703,130.000 L 99.703,130.000" />
  <path style="fill:none;stroke:#000000;stroke-width:0.3" d="M 100.000,70.000 L 102.000,70.000" />
  <path style="fill:none;stroke:#000000;stroke-width:0.3" d="M 102.297,130.000 L 104.297,130.000" />
  <path style="fill:none;stroke:#000000;stroke-width:0.3" d="M 104.595,70.000 L 106.595,70.000" />
  <path style="fill:none;stroke:#000000;stroke-width:0.3" d="M 106.892,130.000 L 108.892,130.000" />
  <path style="fill:none;stroke:#000000;stroke-width:0.3" d="M 109.189,70.000 L 111.189,70.000" />
  <path style="fill:none;stroke:#000000;stroke-width:0.3" d="M 111.486,130.000 L 113.486,130.000" />
  <path style="fill:none;stroke:#000000;stroke-width:0.3" d="M 113.784,70.000 L 115.784,70.000" />
  <path style="fill:none;stroke:#000000;stroke-width:0.3" d="M 116.081,130.000 L 118.081,130.000" />
  <path style="fill:none;stroke:#000000;stroke-width:0.3" d="M 118.378,70.000 L 120.378,70.000" />
  <path style="fill:none;stroke:#000000;stroke-width:0.3" d="M 120.676,130.000 L 122.676,130.000" />
  <path style="fill:none;stroke:#000000;stroke-width:0.3" d="M 122.973,70.000 L 124.973,70.000" />
  <path style="fill:none;stroke:#000000;stroke-width:0.3" d="M 125.270,130.000 L 127.270,130.000" />
  <path style="fill:none;stroke:#000000;stroke-width:0.3" d="M 127.568,70.000 L 129.568,70.000" />
  <path style="fill:none;stroke:#000000;stroke-width:0.3" d="M 129.865,130.000 L 131.865,130.000" />
  <path style="fill:none;stroke:#000000;stroke-width:0.3" d="M 132.162,70.000 L 134.162,70.000" />
  <path style="fill:none;stroke:#000000;stroke-width:0.3" d="M 134.459,130.000 L 136.459,130.000" />
  <path style="fill:none;stroke:#000000;stroke-width:0.3" d="M 136.757,70.000 L 138.757,70.000" />
  <path style="fill:none;stroke:#000000;stroke-width:0.3" d="M 139.054,130.000 L 141.054,130.000" />
  <path style="fill:none;stroke:#000000;stroke-width:0.3" d="M 141.351,70.000 L 143.351,70.000" />
  <path style="fill:none;stroke:#000000;stroke-width:0.3" d="M 143.649,130.000 L 145.649,130.000" />
  <path style="fill:none;stroke:#000000;stroke-width:0.3" d="M 145.946,70.000 L 147.946,70.000" />
  <path style="fill:none;stroke:#000000;stroke-width:0.3" d="M 148.243,130.000 L 150.243,130.000" />
  <path style="fill:none;stroke:#000000;stroke-width:0.3" d="M 150.541,70.000 L 152.541,70.000" />
  <path style="fill:none;stroke:#000000;stroke-width:0.3" d="M 152.838,130.000 L 154.838,130.000" />
  <path style="fill:none;stroke:#000000;stroke-width:0.3" d="M 155.135,70.000 L 157.135,70.000" />
  <path style="fill:none;stroke:#000000;stroke-width:0.3" d="M 157.432,130.000 L 159.432,130.000" />
  <path style="fill:none;stroke:#000000;stroke-width:0.3" d="M 159.730,70.000 L 161.730,70.000" />
  <path style="fill:none;stroke:#000000;stroke-width:0.3" d="M 162.027,130.000 L 164.027,130.000" />
  <path style="fill:none;stroke:#000000;stroke-width:0.3" d="M 164.324,70.000 L 166.324,70.000" />
  <path style="fill:none;stroke:#000000;stroke-width:0.3" d="M 166.622,130.000 L 168.622,130.000" />
  <path style="fill:none;stroke:#000000;stroke-width:0.3" d="M 168.919,70.000 L 170.919,70.000" />
  <path style="fill:none;stroke:#000000;stroke-width:0.3" d="M 171.216,130.000 L 173.216,130.000" />
  <path style="fill:none;stroke:#000000;stroke-width:0.3" d="M 173.514,70.000 L 175.514,70.000" />
  <path style="fill:none;stroke:#000000;stroke-width:0.3" d="M 175.811,130.000 L 177.811,130.000" />
  <path style="fill:none;stroke:#000000;stroke-width:0.3" d="M 178.108,70.000 L 180.108,70.000" />
  <path style="fill:none;stroke:#000000;stroke-width:0.3" d="M 180.405,130.000 L 182.405,130.000" />
  <path style="fill:none;stroke:#000000;stroke-width:0.3" d="M 182.703,70.000 L 184.703,70.000" />
  <path style="fill:none;stroke:#000000;stroke-width:0.3" d="M 185.000,130.000 L 187.000,130.000" />
</svg>
